<svg width="162" height="34" viewBox="0 0 162 34" fill="none" xmlns="http://www.w3.org/2000/svg">
<path d="M30.384 32.04V33H17.76V32.04H20.592L17.376 25.368H7.68L4.896 32.04H8.688V33H0.48V32.04H3.696L14.688 5.64H15.888L28.08 32.04H30.384ZM8.112 24.36H16.896L12.192 14.568L8.112 24.36ZM54.1237 32.04H56.5238V33H44.5238V32.04H46.9238V18.6C46.9238 16.328 46.5878 14.712 45.9158 13.752C45.2438 12.792 44.2358 12.312 42.8918 12.312C41.0678 12.312 39.6118 13.272 38.5238 15.192V32.04H40.9238V33H28.9237V32.04H31.3238V11.88H28.9237V10.92H38.5238V13.416C39.1318 12.584 40.0758 11.88 41.3558 11.304C42.6678 10.696 44.0758 10.392 45.5798 10.392C51.2758 10.392 54.1237 13.48 54.1237 19.656V32.04ZM79.3013 32.04C78.9813 32.36 78.3733 32.648 77.4773 32.904C76.5813 33.128 75.5413 33.24 74.3573 33.24C71.7333 33.24 70.0852 32.456 69.4132 30.888C67.8133 32.552 65.3653 33.384 62.0693 33.384C60.3093 33.384 58.8533 32.984 57.7012 32.184C56.5812 31.352 56.0212 30.136 56.0212 28.536C56.0212 26.392 56.8532 24.744 58.5173 23.592C60.1813 22.408 63.0933 21.576 67.2533 21.096L69.1733 20.856V18.504C69.1733 15.72 68.9653 13.848 68.5493 12.888C68.1333 11.928 67.3013 11.448 66.0533 11.448C64.8373 11.448 64.0533 11.624 63.7012 11.976C63.3493 12.296 63.2213 12.68 63.3172 13.128C63.4132 13.544 63.5733 14.104 63.7973 14.808C64.0213 15.512 64.1332 16.072 64.1332 16.488C64.1332 17.48 63.7812 18.328 63.0773 19.032C62.4053 19.704 61.5733 20.04 60.5812 20.04C59.6212 20.04 58.7892 19.704 58.0852 19.032C57.3812 18.328 57.0292 17.48 57.0292 16.488C57.0292 14.856 57.8612 13.464 59.5252 12.312C61.2213 11.128 63.7333 10.536 67.0613 10.536C70.4213 10.536 72.8053 11.192 74.2133 12.504C75.6533 13.816 76.3733 16.136 76.3733 19.464V28.104C76.3733 29.8 76.5813 30.872 76.9973 31.32C77.4133 31.736 78.1813 31.816 79.3013 31.56V32.04ZM62.6932 27.576C62.8533 28.792 63.3013 29.736 64.0373 30.408C64.7733 31.048 65.6213 31.368 66.5813 31.368C67.5733 31.368 68.4373 30.888 69.1733 29.928V21.768L67.4453 22.008C65.9733 22.2 64.7733 22.76 63.8453 23.688C62.9493 24.616 62.5653 25.912 62.6932 27.576ZM87.1695 11.88V23.592C87.1695 26.344 87.2815 28.024 87.5055 28.632C87.7295 29.208 87.9695 29.704 88.2255 30.12C88.7055 30.952 89.5375 31.368 90.7215 31.368C91.9375 31.368 92.7855 31.208 93.2655 30.888V31.848C91.7295 32.936 90.0495 33.48 88.2255 33.48C85.5375 33.48 83.4895 32.84 82.0815 31.56C80.6735 30.28 79.9695 27.992 79.9695 24.696V11.88H76.4175V10.92H79.9695C81.5055 10.664 82.8655 9.928 84.0495 8.712C85.2335 7.464 86.0495 5.752 86.4975 3.576H87.1695V10.92H92.7375V11.88H87.1695ZM99.7613 30.12C100.465 31.72 101.681 32.52 103.409 32.52C105.137 32.52 106.369 31.704 107.105 30.072C107.841 28.44 108.209 25.752 108.209 22.008C108.209 18.232 107.841 15.528 107.105 13.896C106.369 12.232 105.137 11.4 103.409 11.4C101.681 11.4 100.465 12.232 99.7613 13.896C99.0573 15.528 98.7053 18.232 98.7053 22.008C98.7053 25.784 99.0573 28.488 99.7613 30.12ZM103.313 33.48C100.273 33.48 97.5213 32.488 95.0572 30.504C92.5932 28.52 91.3612 25.704 91.3612 22.056C91.3612 20.104 91.7132 18.36 92.4172 16.824C93.1532 15.288 94.1132 14.072 95.2972 13.176C96.5132 12.28 97.8092 11.608 99.1852 11.16C100.561 10.68 101.969 10.44 103.409 10.44C104.849 10.44 106.257 10.68 107.633 11.16C109.041 11.608 110.337 12.28 111.521 13.176C112.737 14.072 113.713 15.288 114.449 16.824C115.185 18.36 115.553 20.088 115.553 22.008C115.553 23.928 115.185 25.64 114.449 27.144C113.713 28.648 112.737 29.848 111.521 30.744C109.089 32.568 106.353 33.48 103.313 33.48ZM124.695 32.04H127.095V33H115.095V32.04H117.495V1.8H115.095V0.839999H124.695V32.04ZM136.23 32.04H138.63V33H126.63V32.04H129.03V11.88H127.11V10.92H136.23V32.04ZM136.662 4.584C136.662 5.736 136.246 6.728 135.414 7.56C134.614 8.36 133.622 8.76 132.438 8.76C131.286 8.76 130.294 8.36 129.462 7.56C128.63 6.728 128.214 5.736 128.214 4.584C128.214 3.4 128.63 2.392 129.462 1.56C130.294 0.727998 131.286 0.311997 132.438 0.311997C133.622 0.311997 134.614 0.727998 135.414 1.56C136.246 2.392 136.662 3.4 136.662 4.584ZM161.445 32.04C161.125 32.36 160.517 32.648 159.621 32.904C158.725 33.128 157.685 33.24 156.501 33.24C153.877 33.24 152.229 32.456 151.557 30.888C149.957 32.552 147.509 33.384 144.213 33.384C142.453 33.384 140.997 32.984 139.845 32.184C138.725 31.352 138.165 30.136 138.165 28.536C138.165 26.392 138.997 24.744 140.661 23.592C142.325 22.408 145.237 21.576 149.397 21.096L151.317 20.856V18.504C151.317 15.72 151.109 13.848 150.693 12.888C150.277 11.928 149.445 11.448 148.197 11.448C146.981 11.448 146.197 11.624 145.845 11.976C145.493 12.296 145.365 12.68 145.461 13.128C145.557 13.544 145.717 14.104 145.941 14.808C146.165 15.512 146.277 16.072 146.277 16.488C146.277 17.48 145.925 18.328 145.221 19.032C144.549 19.704 143.717 20.04 142.725 20.04C141.765 20.04 140.933 19.704 140.229 19.032C139.525 18.328 139.173 17.48 139.173 16.488C139.173 14.856 140.005 13.464 141.669 12.312C143.365 11.128 145.877 10.536 149.205 10.536C152.565 10.536 154.949 11.192 156.357 12.504C157.797 13.816 158.517 16.136 158.517 19.464V28.104C158.517 29.8 158.725 30.872 159.141 31.32C159.557 31.736 160.325 31.816 161.445 31.56V32.04ZM144.837 27.576C144.997 28.792 145.445 29.736 146.181 30.408C146.917 31.048 147.765 31.368 148.725 31.368C149.717 31.368 150.581 30.888 151.317 29.928V21.768L149.589 22.008C148.117 22.2 146.917 22.76 145.989 23.688C145.093 24.616 144.709 25.912 144.837 27.576Z" fill="#F5F7F8"/>
</svg>
